HIERARCHY
ROOT Hips
{
	OFFSET -14.64140 90.27770 -84.91600
	CHANNELS 6 Xposition Yposition Zposition Zrotation Xrotation Yrotation
	JOINT Spine
	{
		OFFSET 0.00000 13.20850 -1.60436
		CHANNELS 3 Zrotation Xrotation Yrotation
		JOINT Spine1
		{
			OFFSET 0.00000 8.61716 0.00000
			CHANNELS 3 Zrotation Xrotation Yrotation
			JOINT Spine2
			{
				OFFSET 0.00000 8.61717 0.00000
				CHANNELS 3 Zrotation Xrotation Yrotation
				JOINT Spine3
				{
					OFFSET 0.00000 8.61717 0.00000
					CHANNELS 3 Zrotation Xrotation Yrotation
					JOINT Neck
					{
						OFFSET 0.00000 11.07920 1.10792
						CHANNELS 3 Zrotation Xrotation Yrotation
						JOINT Neck1
						{
							OFFSET 0.00000 7.08032 0.00000
							CHANNELS 3 Zrotation Xrotation Yrotation
							JOINT Head
							{
								OFFSET 0.00000 7.08031 0.00000
								CHANNELS 3 Zrotation Xrotation Yrotation
								End site
								{
									OFFSET 0.00000 0.00000 0.00000
								}
							}
						}
					}
					JOINT RightShoulder
					{
						OFFSET -0.01000 7.91373 5.19711
						CHANNELS 3 Zrotation Xrotation Yrotation
						JOINT RightArm
						{
							OFFSET -18.41580 0.00000 0.00000
							CHANNELS 3 Zrotation Xrotation Yrotation
							JOINT RightForeArm
							{
								OFFSET -29.11090 0.00000 0.00000
								CHANNELS 3 Zrotation Xrotation Yrotation
								JOINT RightHand
								{
									OFFSET -24.65040 0.00000 0.00000
									CHANNELS 3 Zrotation Xrotation Yrotation
									JOINT RightHandThumb1
									{
										OFFSET -5.35114 -0.85590 3.97906
										CHANNELS 3 Zrotation Xrotation Yrotation
										JOINT RightHandThumb2
										{
											OFFSET -4.52789 0.00000 0.00000
											CHANNELS 3 Zrotation Xrotation Yrotation
											JOINT RightHandThumb3
											{
												OFFSET -2.46976 0.00000 0.00000
												CHANNELS 3 Zrotation Xrotation Yrotation
												End site
												{
													OFFSET 0.00000 0.00000 0.00000
												}
											}
										}
									}
									JOINT RightHandIndex1
									{
										OFFSET -14.26970 0.00000 2.88139
										CHANNELS 3 Zrotation Xrotation Yrotation
										JOINT RightHandIndex2
										{
											OFFSET -5.48836 0.00000 0.00000
											CHANNELS 3 Zrotation Xrotation Yrotation
											JOINT RightHandIndex3
											{
												OFFSET -3.01859 0.00000 0.00000
												CHANNELS 3 Zrotation Xrotation Yrotation
												End site
												{
													OFFSET 0.00000 0.00000 0.00000
												}
											}
										}
									}
									JOINT RightHandMiddle1
									{
										OFFSET -14.26970 0.00000 -0.09147
										CHANNELS 3 Zrotation Xrotation Yrotation
										JOINT RightHandMiddle2
										{
											OFFSET -6.17441 0.00000 0.00000
											CHANNELS 3 Zrotation Xrotation Yrotation
											JOINT RightHandMiddle3
											{
												OFFSET -3.56743 0.00000 0.00000
												CHANNELS 3 Zrotation Xrotation Yrotation
												End site
												{
													OFFSET 0.00000 0.00000 0.00000
												}
											}
										}
									}
									JOINT RightHandRing1
									{
										OFFSET -12.69180 0.00000 -3.06433
										CHANNELS 3 Zrotation Xrotation Yrotation
										JOINT RightHandRing2
										{
											OFFSET -5.62556 0.00000 0.00000
											CHANNELS 3 Zrotation Xrotation Yrotation
											JOINT RightHandRing3
											{
												OFFSET -3.56744 0.00000 0.00000
												CHANNELS 3 Zrotation Xrotation Yrotation
												End site
												{
													OFFSET 0.00000 0.00000 0.00000
												}
											}
										}
									}
									JOINT RightHandPinky1
									{
										OFFSET -11.11390 0.00000 -6.03719
										CHANNELS 3 Zrotation Xrotation Yrotation
										JOINT RightHandPinky2
										{
											OFFSET -4.52789 0.00000 0.00000
											CHANNELS 3 Zrotation Xrotation Yrotation
											JOINT RightHandPinky3
											{
												OFFSET -2.46976 0.00000 0.00000
												CHANNELS 3 Zrotation Xrotation Yrotation
												End site
												{
													OFFSET 0.00000 0.00000 0.00000
												}
											}
										}
									}
								}
							}
						}
					}
					JOINT LeftShoulder
					{
						OFFSET 0.01000 7.91373 5.19711
						CHANNELS 3 Zrotation Xrotation Yrotation
						JOINT LeftArm
						{
							OFFSET 18.41580 0.00000 0.00000
							CHANNELS 3 Zrotation Xrotation Yrotation
							JOINT LeftForeArm
							{
								OFFSET 29.11090 0.00000 0.00000
								CHANNELS 3 Zrotation Xrotation Yrotation
								JOINT LeftHand
								{
									OFFSET 24.65040 0.00000 0.00000
									CHANNELS 3 Zrotation Xrotation Yrotation
									JOINT LeftHandThumb1
									{
										OFFSET 5.35114 -0.85590 3.97906
										CHANNELS 3 Zrotation Xrotation Yrotation
										JOINT LeftHandThumb2
										{
											OFFSET 4.52789 0.00000 0.00000
											CHANNELS 3 Zrotation Xrotation Yrotation
											JOINT LeftHandThumb3
											{
												OFFSET 2.46977 0.00000 0.00000
												CHANNELS 3 Zrotation Xrotation Yrotation
												End site
												{
													OFFSET 0.00000 0.00000 0.00000
												}
											}
										}
									}
									JOINT LeftHandIndex1
									{
										OFFSET 14.26970 0.00000 2.88139
										CHANNELS 3 Zrotation Xrotation Yrotation
										JOINT LeftHandIndex2
										{
											OFFSET 5.48836 0.00000 0.00000
											CHANNELS 3 Zrotation Xrotation Yrotation
											JOINT LeftHandIndex3
											{
												OFFSET 3.01859 0.00000 0.00000
												CHANNELS 3 Zrotation Xrotation Yrotation
												End site
												{
													OFFSET 0.00000 0.00000 0.00000
												}
											}
										}
									}
									JOINT LeftHandMiddle1
									{
										OFFSET 14.26970 0.00000 -0.09147
										CHANNELS 3 Zrotation Xrotation Yrotation
										JOINT LeftHandMiddle2
										{
											OFFSET 6.17440 0.00000 0.00000
											CHANNELS 3 Zrotation Xrotation Yrotation
											JOINT LeftHandMiddle3
											{
												OFFSET 3.56744 0.00000 0.00000
												CHANNELS 3 Zrotation Xrotation Yrotation
												End site
												{
													OFFSET 0.00000 0.00000 0.00000
												}
											}
										}
									}
									JOINT LeftHandRing1
									{
										OFFSET 12.69180 0.00000 -3.06433
										CHANNELS 3 Zrotation Xrotation Yrotation
										JOINT LeftHandRing2
										{
											OFFSET 5.62556 0.00000 0.00000
											CHANNELS 3 Zrotation Xrotation Yrotation
											JOINT LeftHandRing3
											{
												OFFSET 3.56744 0.00000 0.00000
												CHANNELS 3 Zrotation Xrotation Yrotation
												End site
												{
													OFFSET 0.00000 0.00000 0.00000
												}
											}
										}
									}
									JOINT LeftHandPinky1
									{
										OFFSET 11.11390 0.00000 -6.03719
										CHANNELS 3 Zrotation Xrotation Yrotation
										JOINT LeftHandPinky2
										{
											OFFSET 4.52789 0.00000 0.00000
											CHANNELS 3 Zrotation Xrotation Yrotation
											JOINT LeftHandPinky3
											{
												OFFSET 2.46976 0.00000 0.00000
												CHANNELS 3 Zrotation Xrotation Yrotation
												End site
												{
													OFFSET 0.00000 0.00000 0.00000
												}
											}
										}
									}
								}
							}
						}
					}
					JOINT pCube4
					{
						OFFSET 0.00000 10.91090 1.10792
						CHANNELS 3 Zrotation Xrotation Yrotation
						End site
						{
							OFFSET 0.00000 0.00000 0.00000
						}
					}
				}
			}
		}
	}
	JOINT RightUpLeg
	{
		OFFSET -9.98441 0.00000 0.00000
		CHANNELS 3 Zrotation Xrotation Yrotation
		JOINT RightLeg
		{
			OFFSET 0.00000 -42.11790 0.00000
			CHANNELS 3 Zrotation Xrotation Yrotation
			JOINT RightFoot
			{
				OFFSET 0.00000 -45.00020 -0.00001
				CHANNELS 3 Zrotation Xrotation Yrotation
				JOINT RightForeFoot
				{
					OFFSET 0.00000 -3.74820 0.00000
					CHANNELS 3 Zrotation Xrotation Yrotation
					JOINT RightToeBase
					{
						OFFSET 0.00000 0.06325 14.43120
						CHANNELS 3 Zrotation Xrotation Yrotation
						End site
						{
							OFFSET 0.00000 0.00000 0.00000
						}
					}
				}
			}
		}
	}
	JOINT LeftUpLeg
	{
		OFFSET 9.98441 0.00000 0.00000
		CHANNELS 3 Zrotation Xrotation Yrotation
		JOINT LeftLeg
		{
			OFFSET 0.00000 -42.11800 0.00000
			CHANNELS 3 Zrotation Xrotation Yrotation
			JOINT LeftFoot
			{
				OFFSET 0.00000 -45.00070 0.00000
				CHANNELS 3 Zrotation Xrotation Yrotation
				JOINT LeftForeFoot
				{
					OFFSET 0.00000 -3.74824 0.00000
					CHANNELS 3 Zrotation Xrotation Yrotation
					JOINT LeftToeBase
					{
						OFFSET 0.00000 0.06325 14.43110
						CHANNELS 3 Zrotation Xrotation Yrotation
						End site
						{
							OFFSET 0.00000 0.00000 0.00000
						}
					}
				}
			}
		}
	}
}
MOTION
Frames: 4
Frame Time: 0.050000
0.0 0.0 0.0 -0.0 0.0 -0.0 -4.797494240884652 7.812707538441129 0.5555022135184026 -0.7194001195690614 2.817395085235282 0.42283876982152463 -0.8202507096152125 0.387823831776283 -0.8411299146656251 -0.33605484482346404 0.5487327876106183 -1.1530978682203297 -1.033967952621999 6.889750820062986 1.7813528546714839 -0.3895475573018034 -1.3928847656083083 -0.8983725674517418 -0.6695806338111993 -14.995180355870513 -0.15908470681561634 8.860439611494408 -2.867505548067385 -9.496501062043976 60.92663908918654 17.89252879530106 0.9565591417380362 -15.685469430961115 28.201116390481758 100.30058004497828 20.278092184225898 -3.6962573197831907 -9.458715692792797 -3.86536 -0.725977 10.6206 -1.70868e-06 -5.05035e-06 -4.22763e-05 5.3837e-07 8.68739e-07 -7.6876e-07 3.79151 9.92397e-06 1.68822e-06 1.76556e-31 -6.36111e-15 1.59028e-15 1.59028e-15 0.0 1.59028e-15 12.7179 -3.38534e-07 3.6896e-06 1.59028e-15 -3.18056e-15 -6.36111e-15 -3.18055e-15 -1.27222e-14 -6.36111e-15 20.451 2.13561e-06 4.66857e-06 -5.59711e-07 -9.78871e-07 1.24245e-06 1.11942e-06 1.95774e-06 -2.4849e-06 43.7139 5.29982e-06 -4.35576e-06 -4.8428e-07 -7.08272e-07 1.41429e-06 4.77083e-15 1.27222e-14 3.18055e-15 -5.001730733783962 -1.4784265007751327 9.300970351093858 -60.00968790102499 25.912214651120678 12.764036459105636 4.964171288214701 13.439148344508657 -95.59486265132179 -16.057348167892908 -0.13194206399858852 -0.9771417468063546 4.41974 -2.75119 -31.8364 2.03418e-06 8.96391e-07 2.71781e-05 3.54379e-06 -1.37708e-07 7.74142e-07 -99.3752 -3.44396e-06 -1.15962e-07 -2.94194e-05 8.15215e-07 -1.12913e-05 -1.15373e-06 -7.17353e-08 -2.96415e-06 -112.724 2.1834e-06 6.07179e-06 -2.81255e-05 -3.4463e-06 7.51827e-08 -9.56363e-07 -5.99521e-07 6.03149e-07 -94.5227 -9.2214e-07 -5.10994e-06 6.36111e-15 0.0 -1.78906e-14 1.2491e-06 6.621e-07 -9.2051e-07 -89.4629 1.15124e-05 -2.27079e-06 -1.9342e-05 1.85979e-06 1.38071e-06 -4.41391e-32 3.18056e-15 7.95139e-16 3.97569e-16 -1.09925e-15 -1.59028e-15 -20.1051 -0.55943 -19.9906 2.43385e-06 39.5646 -2.64641e-06 4.82005 -16.7989 -10.6968 3.97569e-16 0.0 -3.18056e-15 4.85298e-07 6.71905 -2.96902e-06 -14.338 7.94412 21.3297 1.10858e-05 13.1511 -7.29341e-07 5.8046 -7.45139 -3.37426 3.97569e-16 0.0 3.18055e-15 -2.06241e-08 0.0983294 7.19633e-06
0.0 0.0 0.0 -0.0 0.0 -0.0 -4.635000150945101 7.4557268651827755 0.3647028619187885 -0.6259441483157003 2.945792843806758 0.3910137386074791 -0.727426121574487 0.3346258378997401 -0.8761891840579439 -0.5999778322237385 0.21850068965342587 -1.104289941372142 -1.6436823898234834 7.355819661177259 2.7781003271519134 -0.22502063470731395 -1.5332248133150397 2.294765168297599 -0.7357587484831007 -15.236908669414474 0.05701951290372419 8.999078454242417 -2.999751341353794 -10.389760885314505 62.97995589799226 13.270050600745686 2.598200002690867 -30.466491362375262 35.0581420779828 112.22540915671291 28.897793569605756 -5.721976323095657 -11.357681357043411 -3.86536 -0.725977 10.6206 -1.70868e-06 -5.05035e-06 -4.22763e-05 5.3837e-07 8.68739e-07 -7.6876e-07 3.79151 9.92397e-06 1.68822e-06 1.76556e-31 -6.36111e-15 1.59028e-15 1.59028e-15 0.0 1.59028e-15 12.7179 -3.38534e-07 3.6896e-06 1.59028e-15 -3.18056e-15 -6.36111e-15 -3.18055e-15 -1.27222e-14 -6.36111e-15 20.451 2.13561e-06 4.66857e-06 -5.59711e-07 -9.78871e-07 1.24245e-06 1.11942e-06 1.95774e-06 -2.4849e-06 43.7139 5.29982e-06 -4.35576e-06 -4.8428e-07 -7.08272e-07 1.41429e-06 4.77083e-15 1.27222e-14 3.18055e-15 -4.1949798297251535 -1.083218315902677 10.09705004713078 -61.48293831900249 27.65840501893762 13.871252443895067 10.753861225790468 14.781489691894173 -111.19426921781962 -25.88649656964371 -0.3250361095774244 -0.608108900201108 4.41974 -2.75119 -31.8364 2.03418e-06 8.96391e-07 2.71781e-05 3.54379e-06 -1.37708e-07 7.74142e-07 -99.3752 -3.44396e-06 -1.15962e-07 -2.94194e-05 8.15215e-07 -1.12913e-05 -1.15373e-06 -7.17353e-08 -2.96415e-06 -112.724 2.1834e-06 6.07179e-06 -2.81255e-05 -3.4463e-06 7.51827e-08 -9.56363e-07 -5.99521e-07 6.03149e-07 -94.5227 -9.2214e-07 -5.10994e-06 6.36111e-15 0.0 -1.78906e-14 1.2491e-06 6.621e-07 -9.2051e-07 -89.4629 1.15124e-05 -2.27079e-06 -1.9342e-05 1.85979e-06 1.38071e-06 -4.41391e-32 3.18056e-15 7.95139e-16 3.97569e-16 -1.09925e-15 -1.59028e-15 -20.1051 -0.55943 -19.9906 2.43385e-06 39.5646 -2.64641e-06 4.82005 -16.7989 -10.6968 3.97569e-16 0.0 -3.18056e-15 4.85298e-07 6.71905 -2.96902e-06 -14.338 7.94412 21.3297 1.10858e-05 13.1511 -7.29341e-07 5.8046 -7.45139 -3.37426 3.97569e-16 0.0 3.18055e-15 -2.06241e-08 0.0983294 7.19633e-06
0.0 0.0 0.0 -0.0 0.0 -0.0 -4.192262327392264 7.472168261899507 0.14846982455757324 -0.5524071904989195 2.996559537119929 0.36631270666774574 -0.6308082023586897 0.371134757444098 -0.8910710953574364 -0.7313812568986039 0.014151948334430998 -1.0550106265475276 -1.961806280872064 7.459109233759048 3.2435376804105185 -0.13439407934745262 -1.6290158343796612 4.0204778111876065 -0.7719203339447753 -15.400821590582936 0.17497801608317887 9.069425482421906 -3.029935905967832 -10.90596015430523 65.00307109091084 10.357118690445954 4.676331350191378 -37.57625308469401 37.26225278974416 113.89645964120963 31.894699828671907 -6.351158779035036 -11.729524355670218 -3.86536 -0.725977 10.6206 -1.70868e-06 -5.05035e-06 -4.22763e-05 5.3837e-07 8.68739e-07 -7.6876e-07 3.79151 9.92397e-06 1.68822e-06 1.76556e-31 -6.36111e-15 1.59028e-15 1.59028e-15 0.0 1.59028e-15 12.7179 -3.38534e-07 3.6896e-06 1.59028e-15 -3.18056e-15 -6.36111e-15 -3.18055e-15 -1.27222e-14 -6.36111e-15 20.451 2.13561e-06 4.66857e-06 -5.59711e-07 -9.78871e-07 1.24245e-06 1.11942e-06 1.95774e-06 -2.4849e-06 43.7139 5.29982e-06 -4.35576e-06 -4.8428e-07 -7.08272e-07 1.41429e-06 4.77083e-15 1.27222e-14 3.18055e-15 -3.7719631313876967 -0.8590816956891287 10.410305777492189 -61.34108496683017 29.15436295871138 13.741583585250856 14.739256970985682 15.021746688780006 -117.27529425909314 -31.820037338114094 -0.2954834910523873 -0.7892583213526634 4.41974 -2.75119 -31.8364 2.03418e-06 8.96391e-07 2.71781e-05 3.54379e-06 -1.37708e-07 7.74142e-07 -99.3752 -3.44396e-06 -1.15962e-07 -2.94194e-05 8.15215e-07 -1.12913e-05 -1.15373e-06 -7.17353e-08 -2.96415e-06 -112.724 2.1834e-06 6.07179e-06 -2.81255e-05 -3.4463e-06 7.51827e-08 -9.56363e-07 -5.99521e-07 6.03149e-07 -94.5227 -9.2214e-07 -5.10994e-06 6.36111e-15 0.0 -1.78906e-14 1.2491e-06 6.621e-07 -9.2051e-07 -89.4629 1.15124e-05 -2.27079e-06 -1.9342e-05 1.85979e-06 1.38071e-06 -4.41391e-32 3.18056e-15 7.95139e-16 3.97569e-16 -1.09925e-15 -1.59028e-15 -20.1051 -0.55943 -19.9906 2.43385e-06 39.5646 -2.64641e-06 4.82005 -16.7989 -10.6968 3.97569e-16 0.0 -3.18056e-15 4.85298e-07 6.71905 -2.96902e-06 -14.338 7.94412 21.3297 1.10858e-05 13.1511 -7.29341e-07 5.8046 -7.45139 -3.37426 3.97569e-16 0.0 3.18055e-15 -2.06241e-08 0.0983294 7.19633e-06
0.0 0.0 0.0 -0.0 0.0 -0.0 -4.259068245601939 7.575280308421865 0.23247659544132554 -0.5451423799694027 2.9384920720362873 0.3667618302688883 -0.6246106147164752 0.40318591535969167 -0.9583422803086757 -0.6506652404368161 0.0492252150786265 -1.103546754692945 -1.8913842913713466 7.131693161163969 3.1970722937655767 -0.18339874789023186 -1.4942305214113407 3.718140772637364 -0.8402460189962561 -15.049175220728428 0.14699788148353793 9.753665189654804 -3.283283097830894 -10.56805099681272 63.250443677868674 9.091669970479687 5.549726260604812 -39.66768672609324 40.18930190456976 111.103774067076 30.404903274959 -6.131903751043987 -11.864725565548794 -3.86536 -0.725977 10.6206 -1.70868e-06 -5.05035e-06 -4.22763e-05 5.3837e-07 8.68739e-07 -7.6876e-07 3.79151 9.92397e-06 1.68822e-06 1.76556e-31 -6.36111e-15 1.59028e-15 1.59028e-15 0.0 1.59028e-15 12.7179 -3.38534e-07 3.6896e-06 1.59028e-15 -3.18056e-15 -6.36111e-15 -3.18055e-15 -1.27222e-14 -6.36111e-15 20.451 2.13561e-06 4.66857e-06 -5.59711e-07 -9.78871e-07 1.24245e-06 1.11942e-06 1.95774e-06 -2.4849e-06 43.7139 5.29982e-06 -4.35576e-06 -4.8428e-07 -7.08272e-07 1.41429e-06 4.77083e-15 1.27222e-14 3.18055e-15 -4.394150064408677 -1.072014149241956 10.139880528743037 -58.908976645350535 28.98219839131399 13.767653075102576 15.968540136955117 14.354307068991808 -117.82000580100127 -32.306836128599485 -0.29915114685649513 -0.8545036024339266 4.41974 -2.75119 -31.8364 2.03418e-06 8.96391e-07 2.71781e-05 3.54379e-06 -1.37708e-07 7.74142e-07 -99.3752 -3.44396e-06 -1.15962e-07 -2.94194e-05 8.15215e-07 -1.12913e-05 -1.15373e-06 -7.17353e-08 -2.96415e-06 -112.724 2.1834e-06 6.07179e-06 -2.81255e-05 -3.4463e-06 7.51827e-08 -9.56363e-07 -5.99521e-07 6.03149e-07 -94.5227 -9.2214e-07 -5.10994e-06 6.36111e-15 0.0 -1.78906e-14 1.2491e-06 6.621e-07 -9.2051e-07 -89.4629 1.15124e-05 -2.27079e-06 -1.9342e-05 1.85979e-06 1.38071e-06 -4.41391e-32 3.18056e-15 7.95139e-16 3.97569e-16 -1.09925e-15 -1.59028e-15 -20.1051 -0.55943 -19.9906 2.43385e-06 39.5646 -2.64641e-06 4.82005 -16.7989 -10.6968 3.97569e-16 0.0 -3.18056e-15 4.85298e-07 6.71905 -2.96902e-06 -14.338 7.94412 21.3297 1.10858e-05 13.1511 -7.29341e-07 5.8046 -7.45139 -3.37426 3.97569e-16 0.0 3.18055e-15 -2.06241e-08 0.0983294 7.19633e-06
